<svg width="197" height="36" viewBox="0 0 197 36" fill="none" xmlns="http://www.w3.org/2000/svg">
<path d="M18.6363 1.67138C18.8054 1.37397 19.0386 1.01674 19.4236 1.01587C19.7531 0.937831 20.0522 1.15894 20.2092 1.4312C21.7734 4.12261 23.3029 6.83397 24.8593 9.52886C26.0915 11.6281 27.2993 13.7403 28.5089 15.8525C28.7066 16.2435 28.9771 16.6008 29.1219 17.017C28.3502 17.8303 27.5889 18.6531 26.7973 19.4474C26.2796 19.9642 25.8079 20.5321 25.2383 20.9934C25.0197 20.4419 24.679 19.952 24.4093 19.4266C23.3992 17.7028 22.4384 15.9504 21.4456 14.2163C20.9072 13.2798 20.4208 12.3139 19.8494 11.3974C19.7089 11.198 19.6569 10.8962 19.4271 10.7844C18.2236 12.8463 17.0469 14.9256 15.8296 16.9797C15.3267 17.8875 14.7475 18.7494 14.2758 19.6746C13.6983 20.6067 13.1338 21.5483 12.6162 22.516C12.2477 23.09 11.9633 23.7134 11.5783 24.2787C11.8445 24.1435 12.0014 23.8747 12.239 23.7013C12.8616 23.142 13.4824 22.5784 14.1049 22.0191C14.8177 21.348 15.5278 20.6708 16.2883 20.0543C16.7903 19.6303 17.5074 19.6572 18.0987 19.8497C18.5505 20.135 18.906 20.5382 19.2979 20.8945C20.132 21.7278 20.9948 22.5316 21.8237 23.3701C22.2685 23.7464 22.6197 24.2233 23.0853 24.5762C23.485 24.7955 23.8778 24.4366 24.1527 24.1782C24.6434 23.6562 25.1403 23.1403 25.6527 22.6408C25.8799 22.405 26.1036 22.1657 26.349 21.9489C27.4068 20.8096 28.5366 19.7405 29.6196 18.6245C31.1942 17.0508 32.7368 15.4441 34.2802 13.84C34.5412 13.5642 34.8377 13.3111 35.0215 12.9729C34.6478 12.5923 34.2594 12.2263 33.8631 11.8708C33.7131 11.7425 33.603 11.5786 33.5293 11.3974C33.5605 11.2986 33.5917 11.2006 33.6238 11.1017C33.9671 10.9127 34.3556 10.8494 34.7302 10.7523C34.9522 10.6647 35.1845 10.611 35.4186 10.5642C36.6065 10.2459 37.7953 9.93031 38.9771 9.58955C39.4497 9.46122 39.9171 9.31122 40.4 9.22191C40.5015 9.32336 40.6038 9.42567 40.7044 9.53059C40.5318 10.5763 40.2474 11.5986 40.0046 12.6295C39.7688 13.7108 39.4887 14.7825 39.2312 15.8594C39.1679 16.1464 39.0951 16.4837 38.7812 16.5938C38.3945 16.456 38.1421 16.1178 37.8872 15.8161C37.7077 15.5889 37.4702 15.4189 37.2733 15.2082C37.1814 15.21 37.1016 15.2394 37.0357 15.2967C36.0932 16.2045 35.2288 17.1886 34.2871 18.0965C33.3385 19.0641 32.4159 20.0587 31.4465 21.0064C31.6312 21.348 31.848 21.6723 32.0327 22.0148C34.2776 25.9028 36.5086 29.7968 38.7725 33.6736C38.88 33.886 38.9901 34.1461 38.867 34.3768C38.7656 34.6655 38.4586 34.8485 38.1577 34.8398C36.8866 34.858 35.6146 34.8389 34.3435 34.8459C33.9602 34.8328 33.5648 34.8537 33.1963 34.7366C32.8226 34.5562 32.4714 34.2953 32.2746 33.9215C31.3347 32.2854 30.4485 30.618 29.4809 28.9974C29.1028 28.2899 28.7204 27.5832 28.2904 26.906C27.9834 26.3597 27.7112 25.7909 27.3461 25.2794C27.1068 25.5325 26.8398 25.7589 26.603 26.0146C25.8955 26.8115 25.0917 27.5156 24.4041 28.3306C24.0495 28.772 23.4451 29.0009 22.8919 28.8561C22.5009 28.7789 22.2234 28.4728 21.9468 28.211C20.7164 27.0118 19.4817 25.8161 18.2435 24.6247C17.9678 24.3186 17.6227 23.9493 17.1735 24.0004C16.8371 24.3152 16.486 24.6126 16.1608 24.9386C13.1806 27.8225 10.249 30.7567 7.23161 33.6016C6.90212 33.912 6.5813 34.2328 6.2362 34.5259C5.99775 34.7219 5.71075 34.8944 5.39253 34.8875C3.8552 34.8909 2.317 34.8901 0.779667 34.884C0.503068 34.8987 0.275026 34.7193 0.0964075 34.5294C0.026174 34.3221 -0.0501304 34.0906 0.0435143 33.8791C0.236873 33.4091 0.517807 32.9842 0.767526 32.5438C3.75548 27.3491 6.78159 22.177 9.76261 16.9779C10.5187 15.6825 11.2939 14.3984 12.017 13.083C12.5529 12.196 13.0523 11.2873 13.563 10.3855C14.1544 9.43175 14.6911 8.44587 15.2642 7.48081C15.905 6.31373 16.6151 5.18652 17.2707 4.0281C17.6955 3.22432 18.2106 2.4743 18.6363 1.67138Z" fill="#0B4B62"/>
<path d="M52.5092 7.18182V29H47.8963V7.18182H52.5092ZM60.7576 19.5398V29H56.2193V12.6364H60.5446V15.5234H60.7363C61.0985 14.5717 61.7058 13.8189 62.5581 13.2649C63.4103 12.7038 64.4437 12.4233 65.6582 12.4233C66.7946 12.4233 67.7853 12.6719 68.6305 13.169C69.4757 13.6662 70.1326 14.3764 70.6014 15.2997C71.0701 16.2159 71.3045 17.3097 71.3045 18.581V29H66.7662V19.3906C66.7733 18.3892 66.5176 17.608 65.9991 17.0469C65.4806 16.4787 64.7669 16.1946 63.8578 16.1946C63.247 16.1946 62.7072 16.326 62.2385 16.5888C61.7768 16.8516 61.4146 17.2351 61.1518 17.7393C60.8961 18.2365 60.7647 18.8366 60.7576 19.5398ZM89.5511 12.6364L83.8303 29H78.7166L72.9957 12.6364H77.7898L81.1882 24.3445H81.3587L84.7464 12.6364H89.5511ZM98.8036 29.3196C97.1204 29.3196 95.6715 28.9787 94.457 28.2969C93.2496 27.608 92.3192 26.6349 91.6658 25.3778C91.0124 24.1136 90.6857 22.6186 90.6857 20.8928C90.6857 19.2095 91.0124 17.7322 91.6658 16.4609C92.3192 15.1896 93.239 14.1989 94.4251 13.4886C95.6183 12.7784 97.0174 12.4233 98.6225 12.4233C99.7021 12.4233 100.707 12.5973 101.637 12.9453C102.575 13.2862 103.392 13.8011 104.088 14.4901C104.791 15.179 105.338 16.0455 105.728 17.0895C106.119 18.1264 106.314 19.3409 106.314 20.733V21.9794H92.4968V19.1669H102.042C102.042 18.5135 101.9 17.9347 101.616 17.4304C101.332 16.9261 100.938 16.532 100.434 16.2479C99.9364 15.9567 99.3576 15.8111 98.6971 15.8111C98.0082 15.8111 97.3974 15.9709 96.8647 16.2905C96.3391 16.603 95.9272 17.0256 95.6289 17.5582C95.3306 18.0838 95.1779 18.6697 95.1708 19.3161V21.9901C95.1708 22.7997 95.32 23.4993 95.6183 24.0888C95.9237 24.6783 96.3533 25.1328 96.9073 25.4524C97.4613 25.772 98.1183 25.9318 98.8782 25.9318C99.3825 25.9318 99.8441 25.8608 100.263 25.7188C100.682 25.5767 101.041 25.3636 101.339 25.0795C101.637 24.7955 101.865 24.4474 102.021 24.0355L106.218 24.3125C106.005 25.321 105.569 26.2017 104.908 26.9545C104.255 27.7003 103.409 28.2827 102.373 28.7017C101.343 29.1136 100.153 29.3196 98.8036 29.3196ZM122.891 17.3026L118.736 17.5582C118.665 17.2031 118.512 16.8835 118.278 16.5994C118.044 16.3082 117.735 16.0774 117.351 15.907C116.975 15.7294 116.524 15.6406 115.998 15.6406C115.295 15.6406 114.702 15.7898 114.219 16.0881C113.736 16.3793 113.495 16.7699 113.495 17.2599C113.495 17.6506 113.651 17.9808 113.963 18.2507C114.276 18.5206 114.812 18.7372 115.572 18.9006L118.534 19.4972C120.125 19.8239 121.311 20.3494 122.092 21.0739C122.873 21.7983 123.264 22.75 123.264 23.929C123.264 25.0014 122.948 25.9425 122.316 26.7521C121.691 27.5618 120.831 28.1939 119.738 28.6484C118.651 29.0959 117.397 29.3196 115.977 29.3196C113.811 29.3196 112.085 28.8686 110.799 27.9666C109.521 27.0575 108.772 25.8217 108.551 24.2592L113.015 24.0249C113.15 24.6854 113.477 25.1896 113.995 25.5376C114.514 25.8786 115.178 26.049 115.988 26.049C116.783 26.049 117.422 25.8963 117.905 25.5909C118.395 25.2784 118.644 24.8771 118.651 24.3871C118.644 23.9751 118.47 23.6378 118.129 23.375C117.788 23.1051 117.262 22.8991 116.552 22.7571L113.718 22.1925C112.12 21.8729 110.931 21.3189 110.15 20.5305C109.375 19.7422 108.988 18.7372 108.988 17.5156C108.988 16.4645 109.272 15.5589 109.841 14.799C110.416 14.0391 111.222 13.4531 112.259 13.0412C113.303 12.6293 114.525 12.4233 115.924 12.4233C117.99 12.4233 119.617 12.8601 120.803 13.7337C121.996 14.6072 122.692 15.7969 122.891 17.3026ZM134.825 12.6364V16.0455H124.971V12.6364H134.825ZM127.208 8.71591H131.747V23.9716C131.747 24.3906 131.811 24.7173 131.938 24.9517C132.066 25.179 132.244 25.3388 132.471 25.4311C132.705 25.5234 132.975 25.5696 133.281 25.5696C133.494 25.5696 133.707 25.5518 133.92 25.5163C134.133 25.4737 134.296 25.4418 134.41 25.4205L135.124 28.7976C134.896 28.8686 134.577 28.9503 134.165 29.0426C133.753 29.142 133.252 29.2024 132.663 29.2237C131.569 29.2663 130.61 29.1207 129.786 28.7869C128.97 28.4531 128.334 27.9347 127.879 27.2315C127.425 26.5284 127.201 25.6406 127.208 24.5682V8.71591ZM141.628 29H136.684L144.216 7.18182H150.161L157.682 29H152.739L147.274 12.1676H147.104L141.628 29ZM141.319 20.424H152.995V24.0249H141.319V20.424ZM160.223 35.1364V12.6364H164.698V15.3849H164.9C165.099 14.9446 165.387 14.4972 165.763 14.0426C166.146 13.581 166.644 13.1974 167.254 12.892C167.872 12.5795 168.639 12.4233 169.556 12.4233C170.749 12.4233 171.85 12.7358 172.858 13.3608C173.867 13.9787 174.673 14.9126 175.276 16.1626C175.88 17.4055 176.182 18.9645 176.182 20.8395C176.182 22.6648 175.887 24.206 175.298 25.4631C174.715 26.7131 173.92 27.6612 172.911 28.3075C171.91 28.9467 170.788 29.2663 169.545 29.2663C168.664 29.2663 167.915 29.1207 167.297 28.8295C166.686 28.5384 166.186 28.1726 165.795 27.7322C165.404 27.2848 165.106 26.8338 164.9 26.3793H164.762V35.1364H160.223ZM164.666 20.8182C164.666 21.7912 164.801 22.6399 165.07 23.3643C165.34 24.0888 165.731 24.6534 166.242 25.0582C166.754 25.456 167.375 25.6548 168.107 25.6548C168.845 25.6548 169.47 25.4524 169.982 25.0476C170.493 24.6357 170.88 24.0675 171.143 23.343C171.413 22.6115 171.548 21.7699 171.548 20.8182C171.548 19.8736 171.416 19.0426 171.154 18.3253C170.891 17.608 170.504 17.0469 169.992 16.642C169.481 16.2372 168.852 16.0348 168.107 16.0348C167.368 16.0348 166.743 16.2301 166.232 16.6207C165.727 17.0114 165.34 17.5653 165.07 18.2827C164.801 19 164.666 19.8452 164.666 20.8182ZM179.208 35.1364V12.6364H183.682V15.3849H183.884C184.083 14.9446 184.371 14.4972 184.747 14.0426C185.131 13.581 185.628 13.1974 186.239 12.892C186.857 12.5795 187.624 12.4233 188.54 12.4233C189.733 12.4233 190.834 12.7358 191.843 13.3608C192.851 13.9787 193.657 14.9126 194.261 16.1626C194.865 17.4055 195.166 18.9645 195.166 20.8395C195.166 22.6648 194.872 24.206 194.282 25.4631C193.7 26.7131 192.904 27.6612 191.896 28.3075C190.894 28.9467 189.772 29.2663 188.529 29.2663C187.649 29.2663 186.899 29.1207 186.281 28.8295C185.671 28.5384 185.17 28.1726 184.779 27.7322C184.389 27.2848 184.09 26.8338 183.884 26.3793H183.746V35.1364H179.208ZM183.65 20.8182C183.65 21.7912 183.785 22.6399 184.055 23.3643C184.325 24.0888 184.715 24.6534 185.227 25.0582C185.738 25.456 186.36 25.6548 187.091 25.6548C187.83 25.6548 188.455 25.4524 188.966 25.0476C189.477 24.6357 189.865 24.0675 190.127 23.343C190.397 22.6115 190.532 21.7699 190.532 20.8182C190.532 19.8736 190.401 19.0426 190.138 18.3253C189.875 17.608 189.488 17.0469 188.977 16.642C188.465 16.2372 187.837 16.0348 187.091 16.0348C186.352 16.0348 185.727 16.2301 185.216 16.6207C184.712 17.0114 184.325 17.5653 184.055 18.2827C183.785 19 183.65 19.8452 183.65 20.8182Z" fill="#0B4B62"/>
</svg>
