<svg width="50" height="20" viewBox="0 0 50 20" fill="none" xmlns="http://www.w3.org/2000/svg">
<path d="M39.5646 2.0527C42.7548 1.38253 45.9071 0.619007 49.1153 0C48.1307 2.25861 47.1496 4.51849 46.1614 6.7771C45.3553 6.26553 44.6501 5.67849 43.8404 5.17203C43.5447 5.00705 43.3228 5.27818 43.1082 5.38689C39.6565 7.72352 36.1976 10.055 32.7459 12.3904C32.6053 12.485 32.4231 12.5554 32.2248 12.549C30.2392 12.5886 28.2501 12.5924 26.2681 12.6999C25.0635 14.3766 23.9454 16.0852 22.7317 17.7594C20.8904 15.4739 19.2079 13.1232 17.3341 10.8531C16.2593 11.921 15.1827 12.9889 14.1277 14.0671C13.2585 13.833 12.5028 13.434 11.639 13.1884C11.0547 14.2947 10.4578 15.3997 9.83382 16.4958C7.13414 16.9843 4.38216 17.3501 1.66805 17.8092C1.11982 17.9039 0.564374 17.9781 0.00351871 18.0254C0.00171531 17.4601 -0.00189169 16.8935 0.00892867 16.3269C2.69599 15.8704 5.42633 15.5251 8.09535 15.0173C8.82212 13.5926 9.65709 12.196 10.3911 10.7738C11.3974 11.1114 12.3586 11.5117 13.3486 11.8724C14.7733 10.5014 16.115 9.08559 17.5307 7.71073C17.574 7.71073 17.6569 7.71201 17.6984 7.71201C19.3341 9.82865 20.9662 11.9479 22.6 14.0658C23.4026 13.0605 24.0103 11.9837 24.8092 10.9771C26.9769 10.958 29.15 10.9567 31.3122 10.8224C31.691 10.8416 31.9038 10.5922 32.1562 10.4387C35.4077 8.23381 38.6791 6.04043 41.918 3.82787C41.2002 3.19479 40.2463 2.71007 39.5646 2.0527Z" fill="#1C8328"/>
<path d="M46.6816 8.29126C47.7907 5.81651 48.8024 3.31874 49.9674 0.859344C50.0305 7.23741 49.9927 13.6193 49.9855 19.9987C33.3293 19.9948 16.6732 19.9948 0.0170301 19.9999C-0.00280722 19.6291 -0.00280717 19.2569 0.00440641 18.886C3.55529 18.322 7.11519 17.7835 10.6625 17.2042C11.1927 16.2514 11.685 15.2871 12.2531 14.3458C13.0411 14.5248 13.6886 14.929 14.4893 15.0927C15.3928 14.1731 16.28 13.242 17.2521 12.357C18.9959 14.6028 20.7218 16.855 22.4567 19.1047C22.5649 19.2326 22.6947 19.3502 22.8227 19.4692C24.1987 17.4728 25.5964 15.484 26.9597 13.4825C28.9615 13.3866 30.9651 13.3559 32.9722 13.3264C36.5394 10.9463 40.0758 8.54193 43.6159 6.14136C44.6474 6.8499 45.6501 7.58145 46.6816 8.29126Z" fill="#1C8328"/>
</svg>
