<svg width="59" height="60" viewBox="0 0 59 60" fill="none" xmlns="http://www.w3.org/2000/svg">
<path d="M1.82514 0.36575C2.55445 -0.0504627 3.42999 0.00390763 4.23992 0.0020328C16.7957 0.00578246 29.3514 0.00390731 41.9072 0.00390731C42.6534 0.0151563 43.4145 -0.0560874 44.1457 0.13702C45.4919 0.52886 46.5155 1.82999 46.523 3.24362C46.538 6.23022 46.5324 9.21683 46.5249 12.2034C46.5586 13.9564 45.0063 15.5538 43.2421 15.4994C29.9907 15.4975 16.7394 15.5088 3.48811 15.505C2.72131 15.4206 2.01262 16.1143 2.04637 16.8774C2.04074 19.8152 2.03887 22.7531 2.04824 25.691C2.01825 26.4484 2.73443 27.0633 3.47124 27.0221C12.791 27.0371 22.1108 27.0427 31.4306 27.054C32.2049 26.9396 32.9211 27.9145 32.4355 28.582C32.248 28.9532 31.8206 29.1219 31.4212 29.1069C22.1014 29.1125 12.7817 29.1032 3.46187 29.1107C2.73631 29.0244 2.00887 29.6206 2.04637 30.3705C2.04074 33.3122 2.03699 36.2556 2.04824 39.1973C2.02575 39.9472 2.71943 40.5753 3.46374 40.5115C11.7805 40.5378 20.0991 40.5115 28.4178 40.5228C29.1246 40.4665 29.7001 41.3383 29.3533 41.9664C29.1621 42.3807 28.6877 42.6132 28.2434 42.5888C19.9285 42.5851 11.6118 42.5982 3.29688 42.5832C1.58703 42.5494 0.0327991 41.0946 0.0140508 39.3604C-0.010322 36.3644 0.00655158 33.3665 0.00467675 30.3705C-0.00657224 29.5175 0.332772 28.7001 0.893347 28.0645C0.420889 27.4139 0.0215501 26.679 0.0140508 25.8541C-0.0140717 22.9912 0.0140508 20.1265 0.000927003 17.2617C-0.010322 16.4968 0.0759202 15.685 0.52963 15.0438C0.664617 14.7982 1.00584 14.4982 0.707739 14.2358C0.216533 13.6002 -0.0159468 12.8034 0.00280152 12.0047C0.0103008 9.07247 -0.0103217 6.14023 0.0121763 3.20799C0.0327994 2.0156 0.765858 0.900077 1.82514 0.36575ZM2.96879 2.10184C2.42883 2.26495 2.03137 2.79553 2.04824 3.35986C2.04074 6.30709 2.03512 9.25432 2.05012 12.2016C2.03699 12.944 2.75693 13.5214 3.47499 13.4671C16.6701 13.4708 29.8651 13.4708 43.0602 13.4671C43.7764 13.5214 44.4963 12.9421 44.4794 12.2016C44.4907 9.2562 44.4851 6.31084 44.4813 3.36736C44.5188 2.60617 43.7895 1.97061 43.0471 2.03622C30.1688 2.0381 17.2925 2.0381 4.41428 2.03622C3.93432 2.0531 3.43937 1.97998 2.96879 2.10184Z" fill="white"/>
<path d="M7.62788 4.50726C8.66466 4.27666 9.81206 4.52976 10.6089 5.24407C11.4919 5.99588 11.9137 7.22014 11.7075 8.35816C11.4732 9.93865 9.94517 11.2079 8.34594 11.1348C6.60797 11.176 5.01811 9.62555 5.02186 7.88383C4.92812 6.3221 6.09802 4.81473 7.62788 4.50726ZM8.06847 6.49833C7.20229 6.69144 6.73359 7.83884 7.31853 8.54002C7.87161 9.39495 9.3396 9.19059 9.63208 8.21193C10.0314 7.28014 9.02276 6.20961 8.06847 6.49833Z" fill="white"/>
<path d="M17.1819 4.5016C18.2674 4.26912 19.4767 4.56722 20.266 5.36402C20.9072 5.96022 21.2297 6.82264 21.314 7.67944C21.3009 8.74435 20.821 9.82612 19.9492 10.4636C18.9686 11.2172 17.5531 11.3672 16.447 10.8048C15.5546 10.3886 14.8852 9.5524 14.6415 8.60186C14.1166 6.84702 15.3933 4.83532 17.1819 4.5016ZM17.63 6.4908C16.6063 6.66328 16.2539 8.12753 17.0488 8.76684C17.78 9.4699 19.2142 8.93745 19.2086 7.89505C19.3567 7.03637 18.4512 6.27707 17.63 6.4908Z" fill="white"/>
<path d="M29.025 6.82644C29.3193 6.76082 29.6249 6.78144 29.9249 6.77582C33.2377 6.78894 36.5506 6.77207 39.8634 6.78332C40.5102 6.74582 41.1102 7.40764 40.9377 8.04695C40.8327 8.52691 40.3584 8.89438 39.8653 8.8625C36.3612 8.86625 32.8553 8.86625 29.3493 8.8625C28.8188 8.885 28.2694 8.42567 28.2751 7.87634C28.2169 7.39639 28.5882 6.96892 29.025 6.82644Z" fill="white"/>
<path d="M38.8025 20.1415C40.5479 18.4898 42.9027 17.5636 45.2931 17.4455C47.6085 17.4005 49.9558 18.1167 51.7819 19.5565C54.0786 21.3114 55.5428 24.1105 55.6272 27.0034C55.6591 29.5306 55.6291 32.0579 55.6422 34.5852C57.3577 35.0295 58.73 36.6269 58.7019 38.4323C58.7075 44.3474 58.715 50.2625 58.6982 56.1776C58.6925 58.2756 56.754 60.0492 54.6823 59.9948C48.606 59.9985 42.5296 60.006 36.4552 59.991C34.4641 59.9967 32.5949 58.2737 32.5874 56.2564C32.5724 50.315 32.5836 44.3718 32.5836 38.4305C32.5143 36.6213 33.9279 34.9995 35.6452 34.5702C35.6527 32.0542 35.6284 29.5363 35.6565 27.0202C35.7052 24.4217 36.8958 21.8945 38.8025 20.1415ZM40.4579 21.4107C38.7706 22.8262 37.7244 24.9748 37.6832 27.1796C37.6719 29.6131 37.6851 32.0448 37.6776 34.4783C42.9815 34.4783 48.2854 34.4877 53.5893 34.4727C53.5874 32.1704 53.5874 29.8662 53.5893 27.5639C53.6418 25.916 53.1243 24.2642 52.1813 22.9162C50.7339 20.8202 48.2216 19.4722 45.6625 19.5284C43.7708 19.4703 41.8941 20.194 40.4579 21.4107ZM34.8559 37.538C34.4041 38.4098 34.6235 39.4279 34.5935 40.369C34.6253 40.4047 34.691 40.4759 34.7228 40.5115C35.9996 40.5453 37.2763 40.5022 38.5531 40.5247C39.1174 40.4909 39.6518 41.044 39.5599 41.6158C39.5693 42.2195 38.9112 42.6282 38.3581 42.5888C37.1001 42.5963 35.8421 42.5795 34.5841 42.5963C34.5822 43.8244 34.5803 45.0542 34.5841 46.2841C36.7176 46.3104 38.8512 46.2579 40.9848 46.3085C41.5772 46.2973 42.0365 46.8972 41.9615 47.4653C41.8341 47.9077 41.4647 48.354 40.9604 48.3108C38.8343 48.3352 36.7101 48.309 34.5841 48.324C34.5766 49.5595 34.5916 50.7931 34.5747 52.0286C35.8946 52.0736 37.2163 52.0267 38.5362 52.0511C39.0743 52.0155 39.6011 52.5198 39.5636 53.0654C39.6161 53.6353 39.0781 54.1022 38.5344 54.1022C37.2182 54.1266 35.9002 54.0984 34.5822 54.1153C34.6347 54.959 34.451 55.8402 34.7172 56.6595C34.9722 57.4769 35.8308 57.9906 36.6651 57.9662C42.6684 57.9625 48.6734 57.9681 54.6785 57.9625C55.6253 57.9625 56.5552 57.2257 56.649 56.2582C56.6958 55.5439 56.6584 54.8259 56.6659 54.1097C55.3703 54.1059 54.0767 54.1191 52.7812 54.1078C52.2094 54.1416 51.6057 53.6616 51.6882 53.0523C51.6357 52.4673 52.2337 51.9761 52.7943 52.0474C54.0861 52.0417 55.376 52.0492 56.6677 52.0474C56.6696 50.8062 56.6659 49.5651 56.6696 48.3258C54.5623 48.309 52.455 48.3315 50.3495 48.3165C49.5527 48.4139 48.9434 47.3509 49.4759 46.7285C49.669 46.3366 50.1489 46.3066 50.5295 46.2916C52.5768 46.2841 54.6223 46.2935 56.6696 46.2879C56.6659 45.0561 56.6659 43.8225 56.6696 42.5907C55.3722 42.5813 54.0767 42.6001 52.7793 42.5851C52.3987 42.587 52.0163 42.3882 51.8025 42.0733C51.4951 41.5071 51.7594 40.7009 52.4175 40.5434C53.8292 40.4834 55.2466 40.549 56.6621 40.5134C56.6584 39.7522 56.6977 38.9892 56.6471 38.2299C56.5346 37.2774 55.6309 36.5181 54.6748 36.5406C48.6772 36.5275 42.6796 36.5388 36.682 36.535C35.949 36.5069 35.1972 36.8762 34.8559 37.538Z" fill="white"/>
<path d="M7.29393 18.0885C8.94753 17.4792 10.9424 18.4166 11.5404 20.0702C12.116 21.527 11.5254 23.3362 10.168 24.133C8.59319 25.1492 6.24215 24.5436 5.40597 22.8506C4.41419 21.1108 5.38535 18.6791 7.29393 18.0885ZM7.8395 20.089C6.93958 20.4377 6.79522 21.7838 7.5939 22.3257C8.31384 22.9181 9.50998 22.4569 9.68059 21.5532C9.95994 20.554 8.75442 19.5847 7.8395 20.089Z" fill="white"/>
<path d="M16.6927 18.1372C17.9282 17.6479 19.4393 17.9685 20.3505 18.9434C21.5316 20.1227 21.6085 22.1625 20.5117 23.4224C19.8124 24.296 18.6575 24.7348 17.5532 24.6054C16.2183 24.5079 15.0428 23.4917 14.6754 22.2169C14.1279 20.6064 15.1197 18.7184 16.6927 18.1372ZM17.2364 20.1527C16.3946 20.5876 16.4115 21.99 17.2608 22.4118C18.0969 22.9668 19.3718 22.1944 19.2106 21.1857C19.2406 20.2333 18.0069 19.624 17.2364 20.1527Z" fill="white"/>
<path d="M7.30546 31.5855C9.14842 30.8787 11.3982 32.1985 11.7001 34.1427C12.0732 35.8601 10.8583 37.7293 9.12405 38.0443C7.28859 38.528 5.24502 37.1256 5.05192 35.2358C4.79319 33.6759 5.81122 32.0654 7.30546 31.5855ZM7.81542 33.5953C7.44795 33.7565 7.18922 34.1146 7.08423 34.4933C6.89862 35.2695 7.57544 36.1094 8.37037 36.0869C9.24216 36.1451 9.97897 35.1383 9.62838 34.3284C9.40527 33.599 8.48098 33.2616 7.81542 33.5953Z" fill="white"/>
<path d="M17.0169 31.5198C18.678 31.023 20.6203 32.0485 21.1134 33.719C21.8108 35.517 20.5153 37.7293 18.6236 38.0517C17.0037 38.4529 15.2189 37.4255 14.7164 35.8413C14.0752 34.0808 15.2039 31.9829 17.0169 31.5198ZM17.2343 33.6478C16.3925 34.0883 16.4113 35.4851 17.2643 35.9069C18.0949 36.4862 19.3791 35.6744 19.2104 34.6714C19.231 33.7134 18.0068 33.1547 17.2343 33.6478Z" fill="white"/>
</svg>
