<svg width="60" height="60" viewBox="0 0 60 60" fill="none" xmlns="http://www.w3.org/2000/svg">
<path d="M16.5867 0.28291C17.0929 -0.187708 18.006 -0.028335 18.2423 0.64853C19.4966 3.66724 20.7135 6.70282 21.9735 9.71965C23.9534 14.0077 25.924 18.2976 27.9171 22.5801C27.3096 22.8651 26.7021 23.1538 26.0759 23.3976C24.2515 19.4208 22.4234 15.4439 20.571 11.4765C17.8823 13.4546 14.7548 14.8515 11.4417 15.3371C8.90489 15.6689 6.28555 15.6183 3.79746 14.9733C3.41497 14.9002 3.11872 14.5946 3.0231 14.2233C2.04061 10.9421 1.05625 7.6628 0.0737676 4.38348C-0.136229 3.84723 0.161892 3.18912 0.724383 3.0335C1.315 2.94912 1.87937 3.21724 2.45873 3.29224C7.31304 4.36098 12.578 3.21349 16.5867 0.28291ZM2.45311 5.35471C3.23685 7.96092 4.00934 10.5728 4.80432 13.1752C8.77927 14.0246 13.0317 13.4508 16.6373 11.5759C17.736 11.0134 18.7504 10.3084 19.7666 9.61653C18.7916 7.25594 17.8241 4.89159 16.8623 2.52538C12.6417 5.25346 7.39179 6.27907 2.45311 5.35471Z" fill="#F4F9FC"/>
<path d="M42.424 0.0429225C42.8683 -0.110825 43.2752 0.179796 43.6221 0.419793C46.8339 2.69788 50.8182 3.88099 54.7538 3.65412C56.1488 3.64475 57.5044 3.2885 58.8619 3.02038C59.6062 2.86288 60.2156 3.71037 59.9268 4.38536C58.9481 7.66281 57.9581 10.9365 56.9813 14.214C56.8819 14.6452 56.505 14.9377 56.0813 15.0108C52.187 15.9277 48.002 15.6671 44.2783 14.1821C42.5327 13.524 40.9446 12.5284 39.4146 11.4784C37.5959 15.4571 35.7397 19.4189 33.9247 23.3995C33.3004 23.1482 32.6966 22.852 32.0835 22.5782C33.7053 19.1076 35.2991 15.6239 36.9078 12.1477C38.5465 8.71842 39.8721 5.1541 41.3421 1.65165C41.6215 1.08541 41.7152 0.239795 42.424 0.0429225ZM40.234 9.61654C41.8296 10.7171 43.474 11.7878 45.3152 12.4346C48.452 13.6215 51.9151 13.8671 55.1963 13.1752C55.9913 10.5728 56.7638 7.96093 57.5475 5.35472C52.6107 6.28283 47.3608 5.24785 43.1402 2.52539C42.1783 4.89348 41.209 7.25594 40.234 9.61654Z" fill="#F4F9FC"/>
<path d="M7.01305 7.99282C9.95675 8.07344 12.9192 7.41908 15.5554 6.10284C15.8498 6.70096 16.1442 7.30095 16.4498 7.89344C13.5361 9.3578 10.2699 10.044 7.01492 10.0047C7.00742 9.33342 7.0093 8.66406 7.01305 7.99282Z" fill="#F4F9FC"/>
<path d="M45.0659 7.31782C45.6884 7.1022 46.3165 6.90158 46.9353 6.67096C47.1715 7.35157 47.3946 8.03594 47.6346 8.71468C49.3202 8.19344 50.9946 7.63094 52.6577 7.0422C52.8939 7.65719 53.0814 8.29094 53.3308 8.90218C51.3621 9.66529 49.3296 10.2559 47.3328 10.9403C46.8415 11.1484 46.2171 10.8353 46.0653 10.3309C45.7147 9.33342 45.3847 8.32844 45.0659 7.31782Z" fill="#F4F9FC"/>
<path d="M45.0958 24.5432C46.4439 24.0651 47.9233 23.7969 49.3389 24.1213C52.1701 24.5526 54.6394 26.675 55.5544 29.3787C56.5725 32.1424 55.8131 35.3843 53.8013 37.5086C57.4537 39.4755 59.9137 43.4542 59.9887 47.6053C60.0149 51.7359 59.9924 55.8684 59.9999 59.9989C59.3306 59.9989 58.6631 59.9989 57.9937 59.997C57.9956 55.8721 57.9994 51.7472 57.9919 47.6222C57.9056 43.9135 55.5281 40.3867 52.1288 38.9055C51.2607 39.2673 50.4076 39.6911 49.4738 39.8805C50.2707 41.7986 51.1163 43.6979 51.9188 45.6141C52.1194 45.9779 51.9301 46.3697 51.8007 46.7222C50.8332 49.2609 49.9051 51.8165 48.9264 54.3534C48.6714 55.1896 47.3364 55.1877 47.072 54.359C46.0764 51.7265 45.0902 49.0903 44.1058 46.456C43.8339 45.9197 44.1883 45.3835 44.3833 44.8923C45.0958 43.2217 45.8383 41.5623 46.5189 39.8786C45.5964 39.663 44.7152 39.3123 43.8789 38.8736C42.3058 39.6461 40.9015 40.7598 39.8665 42.181C41.2877 44.2004 42.0002 46.6697 42.0246 49.1297C42.0265 52.7465 42.0227 56.3652 42.0265 59.9839C41.3515 60.0045 40.6746 60.0008 39.9996 59.997C39.9902 56.189 40.024 52.379 39.9827 48.571C39.8927 44.8454 37.4778 41.3711 34.0897 39.8655C33.2497 40.3379 32.3441 40.7111 31.386 40.8592C32.2203 43.0529 33.036 45.2541 33.8609 47.4497C34.0241 47.8153 33.9922 48.2222 33.8591 48.5897C32.8991 51.4528 31.9504 54.3215 30.9904 57.1846C30.8722 57.6252 30.4766 58.0452 29.9891 57.9964C29.511 58.0321 29.1285 57.6196 29.0123 57.1883C28.0598 54.3534 27.1242 51.5109 26.1698 48.6778C26.0254 48.2822 25.9561 47.8472 26.1379 47.4535C26.9648 45.256 27.7804 43.0548 28.6129 40.8611C27.6548 40.7129 26.7492 40.3342 25.9073 39.8636C22.478 41.4161 20.0593 44.9804 20.0124 48.7622C19.9862 52.5065 20.0086 56.2527 20.003 59.997C19.3262 60.0008 18.6493 60.0045 17.9743 59.9839C17.9799 56.3615 17.9743 52.7409 17.9762 49.1203C17.9949 46.666 18.7412 44.2154 20.1418 42.196C19.1255 40.7692 17.7324 39.6217 16.135 38.9073C15.2668 39.2598 14.4175 39.693 13.4837 39.8767C14.1644 41.5623 14.9068 43.2235 15.6212 44.896C15.8143 45.3835 16.165 45.9179 15.8987 46.4485C14.9125 49.0866 13.9281 51.7247 12.9306 54.3571C12.7563 54.8577 12.1225 55.139 11.6388 54.9159C11.1925 54.8052 11.0632 54.3159 10.9094 53.9446C9.96254 51.3909 8.98943 48.8466 8.0482 46.291C7.9207 46.021 8.02757 45.7304 8.13632 45.4772C8.92943 43.6098 9.74692 41.7536 10.5269 39.8805C9.60442 39.6648 8.71756 39.3161 7.88132 38.8736C4.51762 40.4223 2.11953 43.8985 2.01078 47.6166C1.99953 51.7434 2.00703 55.8702 2.00703 59.997C1.33767 59.9989 0.670179 59.9989 0.00081331 59.9989C0.00643823 55.9321 -0.00856138 51.8672 0.00831337 47.8022C0.0401879 43.591 2.51515 39.5355 6.19385 37.5067C4.542 35.7161 3.66451 33.1737 4.107 30.7531C4.4595 28.3081 6.05698 26.0975 8.23382 24.9425C9.83692 24.1101 11.7381 23.7444 13.5156 24.1551C16.1706 24.6219 18.4787 26.5775 19.4499 29.0825C20.5824 31.9043 19.9055 35.3111 17.8018 37.5067C19.2174 38.2774 20.4399 39.3555 21.4711 40.5892C22.2717 39.7605 23.2074 39.0742 24.203 38.5005C22.868 37.0661 22.0149 35.148 22.0111 33.1774C21.9267 30.9275 22.898 28.6794 24.5461 27.1569C26.2748 25.5088 28.776 24.7307 31.1347 25.0944C33.6528 25.4057 35.9309 27.0631 37.0934 29.3056C38.6834 32.2343 38.1284 36.1174 35.7922 38.493C36.769 39.0761 37.7271 39.7173 38.5053 40.5573C39.6302 39.4211 40.7646 38.2549 42.2008 37.5067C40.5696 35.7724 39.7315 33.3143 40.0821 30.9462C40.4046 28.1019 42.4371 25.5688 45.0958 24.5432ZM11.2544 26.06C9.24256 26.2719 7.41821 27.6275 6.57072 29.4537C5.52636 31.6475 5.97823 34.4599 7.70508 36.1849C9.22755 37.7617 11.65 38.4086 13.7444 37.7317C15.3512 37.2592 16.7218 36.0611 17.4287 34.5462C18.4412 32.4237 18.0606 29.7106 16.45 27.9838C15.1712 26.5344 13.1687 25.8088 11.2544 26.06ZM47.2558 26.06C44.3289 26.3432 41.8858 29.1087 42.0246 32.0581C41.9271 35.2343 44.8277 38.0786 47.9907 37.9886C51.0901 38.0861 53.97 35.3599 53.9663 32.2437C54.1238 30.0987 52.9369 27.9613 51.1013 26.87C49.9651 26.1538 48.5814 25.9119 47.2558 26.06ZM28.5248 27.185C25.5998 27.8713 23.5055 31.0043 24.0867 33.9668C24.3473 35.6918 25.4311 37.2499 26.9235 38.1405C28.6841 39.2205 31.0335 39.2692 32.841 38.2755C35.1191 37.083 36.4672 34.2987 35.8653 31.7806C35.5334 30.0631 34.3766 28.5406 32.8353 27.7194C31.5379 26.9881 29.961 26.8569 28.5248 27.185ZM10.3844 45.2935C10.2363 45.6423 10.0282 46.0304 10.2213 46.4072C10.8213 47.9728 11.3763 49.5572 12.0081 51.1097C12.6681 49.4297 13.2569 47.7235 13.9337 46.051C13.2925 44.5548 12.6588 43.0567 12.0063 41.5661C11.4381 42.796 10.9394 44.0579 10.3844 45.2935ZM47.9945 41.5698C47.3401 43.0567 46.7139 44.5529 46.0689 46.0416C46.7364 47.7291 47.3476 49.4372 47.9945 51.1322C48.6076 49.5666 49.1832 47.9878 49.7776 46.4166C49.9932 45.9854 49.7176 45.556 49.5601 45.1604C49.0239 43.9698 48.5495 42.7529 47.9945 41.5698ZM30.0004 42.8579C29.3479 44.5735 28.7123 46.2947 28.0635 48.0122C28.7085 49.9453 29.3366 51.8859 30.006 53.8115C30.6529 51.8803 31.2997 49.9472 31.9391 48.0122C31.2885 46.2947 30.6547 44.5716 30.0004 42.8579Z" fill="#F4F9FC"/>
</svg>
