<svg width="61" height="60" viewBox="0 0 61 60" fill="none" xmlns="http://www.w3.org/2000/svg">
<path d="M4.65611 0.327637C5.29957 -0.103838 6.19066 -0.105714 6.836 0.322009C8.06664 1.09303 9.29352 1.86969 10.511 2.65947C11.7342 1.87156 12.9592 1.08741 14.1898 0.312629C14.837 -0.115093 15.7262 -0.0925816 16.3678 0.333265C17.5947 1.09866 18.801 1.8997 20.0372 2.65009C21.2585 1.85843 22.4854 1.0724 23.716 0.293869C24.3745 -0.124473 25.2599 -0.0794499 25.8997 0.357652C27.0984 1.1193 28.3065 1.86594 29.4884 2.65197C30.7753 1.88845 32.0078 1.03863 33.2872 0.263854C33.9195 -0.118845 34.758 -0.0756979 35.3677 0.331389C36.6171 1.1268 37.8778 1.90533 39.1178 2.71575C39.7237 3.09845 40.0389 3.80382 40.022 4.50731C40.0276 10.3547 40.0239 16.2021 40.0239 22.0496C43.5169 21.8301 47.0569 22.6592 50.1241 24.3345C53.726 26.2911 56.6675 29.4465 58.3409 33.191C60.125 37.1268 60.517 41.6854 59.3896 45.8594C58.2827 50.1329 55.6057 53.9674 52.002 56.5075C48.6309 58.9012 44.4606 60.1694 40.3259 59.9818C35.9174 59.8448 31.6007 58.0664 28.3159 55.1343C27.5749 55.5976 26.8433 56.0741 26.106 56.5412C25.6989 56.7926 25.26 57.0421 24.7703 57.0515C24.2619 57.0571 23.8042 56.7945 23.3877 56.5337C22.2584 55.8096 21.1347 55.0799 19.9922 54.3764C18.7372 55.1793 17.4897 55.9916 16.2196 56.7682C15.6568 57.119 14.929 57.1415 14.3549 56.802C13.0474 56.0328 11.798 55.168 10.5035 54.3782C9.21473 55.1718 7.96346 56.0272 6.66153 56.7964C6.04058 57.1772 5.24892 57.0965 4.65986 56.6951C3.3917 55.8884 2.11041 55.1005 0.855387 54.2713C0.286966 53.8867 -0.0263224 53.2039 0.00556918 52.5248C0.0036932 36.5133 0.00181723 20.5 0.00556918 4.48855C-0.0657179 3.58808 0.557107 2.84332 1.315 2.44936C2.43308 1.74775 3.54178 1.033 4.65611 0.327637ZM2.00348 4.40226C2.02037 20.4719 2.01099 36.5433 2.00348 52.6129C3.25288 53.4046 4.46101 54.2882 5.77232 54.9692C7.05173 54.2751 8.22797 53.3952 9.483 52.658C10.0777 52.2997 10.8656 52.2828 11.4659 52.6317C12.7509 53.369 13.9403 54.2713 15.246 54.9673C16.5761 54.2938 17.7654 53.3596 19.0636 52.6223C19.6264 52.3015 20.3599 52.2922 20.9264 52.6073C22.2359 53.3427 23.4271 54.2901 24.7666 54.9692C25.4832 54.5902 26.1886 54.1587 26.8283 53.6597C26.5713 53.2902 26.2711 52.9544 25.9897 52.6054C23.3727 49.2399 21.9282 44.9683 22.0258 40.7043C22.0558 36.534 23.5659 32.4012 26.1717 29.1501C29.0794 25.4863 33.3998 22.9875 38.0203 22.2709C38.0053 16.3034 38.0203 10.336 38.0128 4.37036C36.7672 3.62185 35.5778 2.77954 34.319 2.05916C32.9214 2.70075 31.7133 3.73628 30.3495 4.46041C29.7135 4.75306 28.9312 4.6799 28.3553 4.28407C27.1547 3.52242 25.9466 2.77016 24.7553 1.99163C23.5641 2.76453 22.3634 3.5243 21.1666 4.28782C20.5119 4.72867 19.6001 4.75681 18.9323 4.33097C17.696 3.56182 16.4785 2.76453 15.2441 1.99163C14.278 2.64447 13.2818 3.24853 12.3007 3.87886C11.5203 4.48855 10.421 4.95192 9.4905 4.36849C8.24298 3.58808 6.99733 2.80017 5.76669 1.99163C4.50979 2.79079 3.24726 3.58245 2.00348 4.40226ZM40.2715 24.0062C38.8345 24.1394 37.3881 24.3157 36.0112 24.766C32.1823 25.9309 28.813 28.5085 26.6726 31.8872C24.5921 35.1439 23.6691 39.1322 24.1381 42.9704C24.5715 47 26.545 50.8345 29.5409 53.5584C32.4637 56.258 36.3695 57.8619 40.3409 58.0176C44.2655 58.1827 48.2331 56.9239 51.3435 54.5246C54.6115 52.0427 56.932 48.3376 57.7049 44.3061C58.4535 40.7024 57.9226 36.866 56.3111 33.5643C54.8366 30.5252 52.4297 27.9495 49.4976 26.2724C46.7192 24.6647 43.4719 23.8936 40.2715 24.0062Z" fill="white"/>
<rect x="5" y="7" width="30" height="2" rx="1" fill="white"/>
<rect x="5" y="12" width="30" height="2" rx="1" fill="white"/>
<rect x="5" y="17" width="30" height="2" rx="1" fill="white"/>
<rect x="5" y="22" width="25" height="2" rx="1" fill="white"/>
<rect x="5" y="27" width="19" height="2" rx="1" fill="white"/>
<path d="M46.9839 34.0033C47.0889 32.9114 48.0494 31.9472 49.1769 32.0166C49.8879 31.9678 50.4563 32.4706 50.9853 32.8739C52.094 33.7669 53.2346 34.6186 54.3358 35.5209C55.2944 36.2788 55.2175 37.9147 54.2251 38.6125C52.8782 39.6481 51.5744 40.7436 50.1937 41.7323C48.903 42.5877 47.0477 41.5259 46.9914 40.0139C43.4008 40.0233 39.8101 40.0158 36.2195 40.0176C35.5104 40.042 34.7619 39.7662 34.3717 39.1491C33.7958 38.2767 34.0603 37.183 34.0059 36.2038C33.9196 35.0726 34.867 33.9995 36.0132 34.0051C39.6694 33.992 43.3276 33.9976 46.9839 34.0033ZM49.0174 34.0014C48.993 34.5173 49.0925 35.0688 48.8711 35.5547C48.6179 35.9561 48.102 36.0687 47.6574 36.0462C43.7872 36.0387 39.919 36.0443 36.0488 36.0424C36.0488 36.6972 36.0488 37.3537 36.0488 38.0085C39.9208 38.0047 43.7928 38.0122 47.6649 38.0047C47.995 38.016 48.374 37.9728 48.6329 38.2242C49.1919 38.6407 48.9612 39.4267 49.0268 40.0214C50.3419 39.0009 51.717 38.0572 52.9926 36.9879C51.6588 36.003 50.3381 35.0013 49.0174 34.0014Z" fill="white"/>
<path d="M5.67095 35.0914C5.95797 34.9901 6.26751 35.022 6.56766 35.0126C10.3815 35.0276 14.1973 34.9994 18.0111 35.0257C18.5476 35.0145 19.0391 35.4759 18.9922 36.0256C19.026 36.5528 18.5383 37.0424 18.013 37.0199C14.0716 37.0349 10.1301 37.0199 6.18872 37.0255C5.73661 37.0761 5.23009 36.8323 5.09127 36.3802C4.87178 35.8999 5.14192 35.2246 5.67095 35.0914Z" fill="white"/>
<path d="M5.89405 40.0383C9.80921 39.9876 13.7281 40.0364 17.6433 40.0158C18.1573 39.9745 18.8195 40.1321 18.9508 40.7099C19.2041 41.4115 18.5513 42.1206 17.8403 42.0418C13.957 42.0475 10.0737 42.0456 6.19233 42.0418C5.47383 42.1375 4.78159 41.3815 5.07987 40.6855C5.16242 40.3084 5.53198 40.0833 5.89405 40.0383Z" fill="white"/>
<path d="M31.6345 40.4472C32.5144 39.7681 33.912 39.937 34.5948 40.8187C34.8725 41.147 34.9269 41.5878 35.0357 41.9893C38.2999 42.115 41.5716 42.0099 44.8377 42.0437C45.6856 42.0756 46.678 41.8617 47.3552 42.5183C48.1019 43.1224 48.0343 44.1579 48.0512 45.0227C48.0343 45.8894 48.1 46.9269 47.3477 47.529C46.618 48.2157 45.5599 47.9474 44.6594 47.998C41.4496 48.0356 38.2361 47.9174 35.0319 48.06C34.925 48.4595 34.8668 48.8985 34.5911 49.2268C33.9026 50.1048 32.5031 50.2755 31.6233 49.5907C30.3232 48.5852 29.0251 47.5703 27.74 46.546C27.0459 46.0189 26.8696 45.0284 27.1716 44.2423C27.3798 43.7358 27.8376 43.4094 28.254 43.083C29.3871 42.2125 30.4977 41.3139 31.6345 40.4472ZM29.0457 45.0227C30.3589 46.0226 31.6796 47.0132 33.0002 48.0037C33.0284 47.4746 32.8652 46.8387 33.2498 46.3941C33.4842 46.0339 33.9439 46.0245 34.3266 46.0245C38.2286 46.0301 42.1306 46.0264 46.0326 46.0264C46.0326 45.3567 46.0326 44.6851 46.0326 44.0153C42.1269 44.0153 38.2211 44.0116 34.3172 44.0172C33.942 44.0153 33.4899 44.006 33.2591 43.657C32.8652 43.2143 33.0284 42.569 33.0002 42.0381C31.6796 43.0305 30.3551 44.0172 29.0457 45.0227Z" fill="white"/>
<path d="M5.53016 45.1428C5.97289 44.9571 6.47003 45.034 6.93902 45.0134C10.5071 45.0246 14.0752 45.0171 17.6433 45.0171C17.9585 45.0303 18.3056 45.0096 18.5776 45.1972C19.1479 45.5574 19.1347 46.5442 18.5363 46.8706C18.2718 47.0526 17.936 47.015 17.634 47.03C13.7507 47.015 9.8693 47.0394 5.98603 47.0188C4.99551 47.0676 4.65408 45.5574 5.53016 45.1428Z" fill="white"/>
</svg>
