<svg width="60" height="60" viewBox="0 0 60 60" fill="none" xmlns="http://www.w3.org/2000/svg">
<path d="M27.4799 0.121872C28.0218 -0.178109 28.8878 0.089874 28.9518 0.76983C29.0238 1.58378 29.0138 2.40972 28.9498 3.22567C28.8598 4.15961 27.3259 4.25561 27.0639 3.38166C26.9239 2.7297 26.9959 2.05575 26.9819 1.39379C26.9859 0.93982 26.9919 0.337858 27.4799 0.121872Z" fill="white"/>
<path d="M15.0747 5.68553C15.8026 5.16957 16.4246 6.02951 16.8986 6.48548C17.3125 6.97945 18.0945 7.39342 17.9625 8.14337C17.8765 8.83933 16.9586 9.2493 16.4046 8.79733C15.8166 8.25337 15.2327 7.6934 14.7087 7.08544C14.2927 6.63347 14.6227 5.96752 15.0747 5.68553Z" fill="white"/>
<path d="M40.0294 5.6295C40.8153 5.16553 41.8973 6.38145 41.2633 7.0894C40.7173 7.71536 40.1274 8.31332 39.4954 8.85129C38.6835 9.39325 37.5935 8.30932 38.1275 7.49538C38.7115 6.83142 39.3274 6.17146 40.0294 5.6295Z" fill="white"/>
<path d="M25.2902 6.3175C27.994 5.67954 30.9578 5.99552 33.3837 7.39143C36.2675 8.99932 38.3074 11.9831 38.8453 15.2309C39.0753 16.8128 39.0133 18.4487 38.5833 19.9906C41.7211 22.7684 43.725 26.7962 43.963 30.9879C45.0989 31.0459 46.2548 30.8839 47.3768 31.0779C48.0107 31.2839 48.0127 32.0478 48.0007 32.5958C47.9807 41.4052 48.0167 50.2167 47.9727 59.0241C47.9947 59.642 47.3868 60.052 46.8108 59.99C44.199 59.988 41.5871 60.01 38.9753 59.98C38.3493 60.004 37.9154 59.3981 37.9894 58.8061C37.9774 54.0324 37.9854 49.2587 37.9854 44.485C37.3694 44.995 36.6975 45.435 36.0095 45.8429C35.9415 50.2327 36.0155 54.6264 35.9735 59.0181C35.9875 59.5481 35.5275 59.996 34.9996 59.98C32.5317 60.022 30.0619 59.972 27.594 60C27.1021 59.986 26.4641 60.048 26.1641 59.5621C25.8982 59.0901 26.0101 58.5201 25.9821 58.0042C25.9881 54.6284 25.9821 51.2526 25.9841 47.8768C24.1143 47.6208 22.2804 47.0649 20.6065 46.1889C20.1125 45.9289 19.6446 45.617 19.1286 45.399C16.1188 49.2227 13.053 53.0025 10.0212 56.8082C9.16923 57.8162 8.45928 59.0561 7.18536 59.5881C4.84951 60.636 1.8897 59.5321 0.683779 57.3062C-0.422149 55.4343 -0.214162 52.7425 1.50973 51.3046C5.72345 47.9168 9.94518 44.537 14.1729 41.1672C14.2889 41.0113 14.7089 40.8693 14.5009 40.6333C13.071 38.3414 12.157 35.7116 12.017 33.0058C11.6591 28.1381 13.7329 23.2044 17.3907 19.9886C16.6308 17.2008 16.9687 14.115 18.4146 11.6012C19.8545 8.99732 22.3944 7.02345 25.2902 6.3175ZM23.6863 9.07532C21.3444 10.3432 19.6666 12.7091 19.1466 15.3089C18.8326 17.1708 18.9766 19.1867 19.9425 20.8486C20.7985 22.3405 22.1844 23.4064 23.2963 24.6923C24.1083 25.6202 24.7222 26.7502 24.9102 27.9781C25.6022 28.0001 26.2961 28.0041 26.9881 27.9861C26.9661 26.7842 27.0141 25.5823 26.9681 24.3823C26.0901 23.3564 24.9982 22.5224 24.1243 21.4925C23.5743 20.6546 24.6622 19.5746 25.5002 20.1366C26.3761 20.8786 27.1521 21.7365 27.986 22.5264C28.714 21.8085 29.4439 21.0925 30.1759 20.3766C30.4699 20.0426 30.9698 19.8906 31.3878 20.0806C32.0178 20.3066 32.1757 21.2445 31.6918 21.6925C30.9318 22.4645 30.1479 23.2104 29.3699 23.9624C29.2079 24.1403 28.948 24.3023 28.994 24.5823C28.966 25.7162 28.994 26.8522 28.984 27.9861C29.6759 27.9981 30.3659 28.0001 31.0558 27.9981C31.1698 27.3881 31.3438 26.7842 31.6318 26.2322C32.8057 23.8964 35.3675 22.6064 36.3915 20.1706C37.3714 17.7368 37.1154 14.8589 35.8155 12.5891C34.6756 10.5232 32.6977 8.93333 30.4159 8.31537C28.186 7.7334 25.7162 7.94939 23.6863 9.07532ZM14.9169 37.0095C16.2748 40.6153 19.2046 43.5891 22.7924 44.997C25.9801 46.2809 29.6499 46.3189 32.8697 45.117C36.1455 43.9211 38.9193 41.4312 40.4872 38.3174C43.237 33.0438 42.1311 25.9842 37.6994 21.9705C37.3554 22.5324 36.9654 23.0684 36.5435 23.5764C38.9533 26.0042 40.2452 29.492 39.9552 32.9038C39.7413 36.1216 38.1274 39.2054 35.6335 41.2452C33.2597 43.2391 30.0839 44.221 26.9981 43.9451C23.8143 43.7111 20.7705 42.1092 18.7406 39.6513C16.7347 37.2695 15.7428 34.0717 16.0328 30.9739C16.2428 28.2061 17.4847 25.5423 19.4306 23.5684C19.0106 23.0564 18.6206 22.5224 18.2646 21.9645C14.2129 25.6662 12.917 31.9318 14.9169 37.0095ZM18.8646 36.0956C20.2225 39.1954 23.2643 41.4832 26.6261 41.8992C29.1099 42.2432 31.7218 41.6272 33.7636 40.1613C36.3895 38.3394 38.0254 35.1856 37.9854 31.9878C38.0114 29.404 36.9394 26.8662 35.1576 25.0103C34.2836 25.8322 33.4297 26.7542 33.0977 27.9381C33.7056 28.1001 34.1596 28.716 33.9176 29.35C33.8316 29.798 33.3537 29.918 32.9897 30.052C32.9597 31.1599 33.0277 32.2718 32.9517 33.3797C32.8497 34.4977 32.0058 35.3956 31.0058 35.8276C30.9958 36.9115 31.0518 38.1514 30.2239 38.9834C29.0979 40.3493 26.7521 40.3013 25.6802 38.8934C24.9162 38.0594 24.9982 36.8775 24.9762 35.8296C24.1083 35.4376 23.3283 34.7317 23.1023 33.7737C22.8663 32.5518 23.0323 31.2899 22.9883 30.052C22.5644 29.928 22.0664 29.73 22.0184 29.22C21.8464 28.6081 22.3304 28.1021 22.8823 27.9481C22.5564 26.7582 21.6924 25.8342 20.8205 25.0083C17.9927 27.8581 17.1807 32.4518 18.8646 36.0956ZM24.9982 29.988C25.0002 31.0639 24.9322 32.1438 25.0282 33.2138C25.0842 33.6757 25.5282 33.9797 25.9721 33.9797C27.2481 34.0157 28.526 33.9877 29.8039 33.9917C30.2979 34.0237 30.8798 33.7737 30.9478 33.2298C31.0358 32.1558 30.9578 31.0759 30.9878 30C28.99 29.978 26.9941 30.004 24.9982 29.988ZM43.959 33.0018C43.759 36.3756 42.4411 39.6753 40.2612 42.2612C40.0812 42.4552 39.9452 42.6891 39.9872 42.9671C39.9812 47.9708 39.9852 52.9745 39.9852 57.9782C41.9891 57.9822 43.991 57.9822 45.9949 57.9762C45.9749 49.6527 45.9809 41.3272 45.9929 33.0018C45.3149 32.9858 44.6369 32.9878 43.959 33.0018ZM27.0001 35.9896C27.0181 36.4655 26.9401 36.9615 27.0941 37.4235C27.3761 38.1674 28.614 38.1654 28.89 37.4175C29.0399 36.9575 28.964 36.4635 28.982 35.9896C28.322 35.9896 27.66 35.9896 27.0001 35.9896ZM2.91364 52.7305C1.58372 53.7684 1.80771 55.9343 2.96363 57.0222C4.05156 58.1801 6.21942 58.3861 7.25335 57.0542C10.7011 52.7625 14.1289 48.4548 17.5787 44.1651C16.9667 43.6031 16.3788 43.0191 15.8188 42.4052C11.5231 45.8549 7.21536 49.2867 2.91364 52.7305ZM28 48.0028C27.964 51.3266 27.994 54.6524 27.984 57.9762C29.9859 57.9822 31.9858 57.9822 33.9876 57.9782C33.9816 54.2644 33.9816 50.5526 33.9876 46.8429C32.0798 47.5868 30.0479 47.9948 28 48.0028Z" fill="white"/>
<path d="M26.5081 10.1512C27.1641 10.0572 27.868 9.87925 28.512 10.1132C29.2799 10.4792 29.1219 11.8851 28.226 11.9551C27.3821 12.0451 26.5041 12.1051 25.7462 12.5291C25.0282 12.8471 24.5202 13.457 23.9243 13.941C23.1623 14.445 22.0964 13.427 22.5484 12.6311C23.5023 11.3552 24.9642 10.4992 26.5081 10.1512Z" fill="white"/>
<path d="M21.6266 16.0389C22.3145 15.7149 23.1525 16.4208 22.9585 17.1588C22.8705 17.9207 21.8126 18.2147 21.2926 17.6907C20.7906 17.2248 20.9486 16.2468 21.6266 16.0389Z" fill="white"/>
<path d="M11.477 18.1187C12.3609 17.8827 13.3109 17.9947 14.2168 18.0307C15.1487 18.1207 15.2527 19.6526 14.3828 19.9186C13.5228 20.0626 12.6329 20.0126 11.767 19.9586C10.883 19.8746 10.725 18.4927 11.477 18.1187Z" fill="white"/>
<path d="M41.4851 18.1167C42.363 17.8847 43.307 17.9927 44.2089 18.0307C45.2269 18.1227 45.2289 19.8586 44.2149 19.9586C43.397 20.0266 42.567 20.0286 41.7491 19.9566C40.8731 19.8586 40.7291 18.4807 41.4851 18.1167Z" fill="white"/>
<path d="M50.4824 19.1206C50.8243 18.9466 51.2223 18.9926 51.5923 18.9786C54.0661 18.9986 56.542 18.9586 59.0158 18.9966C59.6438 18.9726 60.0497 19.5926 59.9858 20.1726C59.9958 33.0497 59.9898 45.9269 59.9878 58.8021C60.0557 59.394 59.6258 60.014 58.9898 59.978C56.458 60.016 53.9261 59.976 51.3943 59.998C51.0103 59.984 50.5644 60 50.2744 59.704C49.9804 59.414 49.9924 58.9741 49.9824 58.5941C49.9844 45.8629 49.9844 33.1297 49.9824 20.3985C49.9744 19.9386 50.0064 19.3506 50.4824 19.1206ZM51.9963 20.9905C51.9703 33.3197 51.9843 45.6489 51.9883 57.9781C53.9901 57.9801 55.99 57.9821 57.9919 57.9761C57.9879 45.6509 57.9859 33.3257 57.9899 21.0005C55.992 20.9985 53.9941 20.9925 51.9963 20.9905Z" fill="white"/>
</svg>
